mtllib ship.mtl
o pyramid
usemtl material25
v 0.5 -1.1102230246251565e-16 0.375
v 0.5 0.06249999999999989 0
v 0.5 -1.1102230246251565e-16 0
v 0.5 0.12499999999999989 0.375
v 0.5 0.12499999999999989 0.375
v 0.028450014069676448 0.21379375457763672 0
v 0.5 0.06249999999999989 0
v -0.034049987792968715 0.15129375457763672 0.12607812881469727
v -0.034049987792968715 0.15129375457763672 0.12607812881469727
v 0.5 -1.1102230246251565e-16 0.375
v -0.03470001369714737 7.704950832276263e-18 0.12392187118530273
v 0.5 0.12499999999999989 0.375
v -0.03404998779296875 7.560616087191885e-18 -0.12607812881469727
v 0.5 0.12499999999999989 -0.375
v -0.034049987792968715 0.15129375457763672 -0.12607812881469727
v 0.5 -1.1102230246251565e-16 -0.375
v -0.03470001369714737 7.704950832276263e-18 0.12392187118530273
v 0.5 -1.1102230246251565e-16 0
v 0.15312500298023224 -0.046875000000000035 -0.001078129280358553
v 0.5 -1.1102230246251565e-16 0.375
v -0.5 1.1102230246251565e-16 0
v 0.15312500298023224 -0.046875000000000035 -0.001078129280358553
v -0.03470001369714737 7.704950832276263e-18 0.12392187118530273
v -0.03404998779296875 7.560616087191885e-18 -0.12607812881469727
v -0.5 1.1102230246251565e-16 0
v -0.034049987792968715 0.15129375457763672 -0.12607812881469727
v -0.5 1.1102230246251565e-16 0
v 0.028450014069676448 0.21379375457763672 0
v -0.034049987792968715 0.15129375457763672 0.12607812881469727
v -0.034049987792968715 0.15129375457763672 0.12607812881469727
v -0.5 1.1102230246251565e-16 0
v -0.03470001369714737 7.704950832276263e-18 0.12392187118530273
v 0.5 0.12499999999999989 -0.375
v 0.5 0.06249999999999989 0
v 0.5 -1.1102230246251565e-16 0
v 0.5 -1.1102230246251565e-16 -0.375
v 0.5 -1.1102230246251565e-16 -0.375
v 0.5 -1.1102230246251565e-16 0
v 0.15312500298023224 -0.046875000000000035 -0.001078129280358553
v -0.03404998779296875 7.560616087191885e-18 -0.12607812881469727
v -0.03404998779296875 7.560616087191885e-18 -0.12607812881469727
v 0.15312500298023224 -0.046875000000000035 -0.001078129280358553
v -0.5 1.1102230246251565e-16 0
v 0.028450014069676448 0.21379375457763672 0
v 0.5 0.06249999999999989 0
v 0.5 0.12499999999999989 -0.375
v -0.034049987792968715 0.15129375457763672 -0.12607812881469727
v -0.034049987792968715 0.15129375457763672 -0.12607812881469727
v 0.028450014069676448 0.21379375457763672 0
v -0.5 1.1102230246251565e-16 0
vt 0.15625 0.734375
vt 0.171875 0.640625
vt 0.15625 0.640625
vt 0.1875 0.734375
vt 0.171875 0.859375
vt 0.260699987411499 0.9830250144004822
vt 0.26691874861717224 0.859375
vt 0.23217812180519104 0.9917078018188477
vt 0.24177265167236328 0.7232031226158142
vt 0.2047620266675949 0.5756940245628357
vt 0.2039460390806198 0.7233703136444092
vt 0.23601040244102478 0.5758668184280396
vt 0.03844296932220459 0.613698422908783
vt 0.0071929688565433025 0.4663953185081482
vt 0.0006195312598720193 0.613698422908783
vt 0.03844296932220459 0.4663953185081482
vt 0.124729685485363 0.8836749792098999
vt 0.09375 0.75
vt 0.093479685485363 0.899218738079071
vt 0.1875 0.75
vt 0.09375 1
vt 0.093479685485363 0.899218738079071
vt 0.124729685485363 0.8836749792098999
vt 0.03844296932220459 0.613698422908783
vt 0.03844296932220459 0.734375
vt 0.0006195312598720193 0.613698422908783
vt 0.11329062283039093 0.7276468873023987
vt 0.09815937280654907 0.5859375
vt 0.1328125 0.6026984453201294
vt 0.24177265167236328 0.7232031226158142
vt 0.20353984832763672 0.84375
vt 0.2039460986852646 0.7233703136444092
vt 0.1875 0.546875
vt 0.171875 0.640625
vt 0.15625 0.640625
vt 0.15625 0.546875
vt 0 0.75
vt 0.09375 0.75
vt 0.093479685485363 0.899218738079071
vt 0.062229689210653305 0.8835124969482422
vt 0.062229689210653305 0.8835124969482422
vt 0.093479685485363 0.899218738079071
vt 0.09375 1
vt 0.260699987411499 0.9830250144004822
vt 0.26691874861717224 0.859375
vt 0.3614829182624817 0.8689109683036804
vt 0.2882067859172821 0.994525671005249
vt 0.0678265243768692 0.609637439250946
vt 0.09815937280654907 0.5859375
vt 0.11329062283039093 0.7276468873023987
vn 1 -2.220446049250313e-16 0
vn 1 -2.220446049250313e-16 0
vn 1 -2.220446049250313e-16 0
vn 1 -2.220446049250313e-16 0
vn 0.30172830905703624 0.9404220011694139 -0.15673700019490233
vn 0.30172830905703624 0.9404220011694139 -0.15673700019490233
vn 0.30172830905703624 0.9404220011694139 -0.15673700019490233
vn 0.30172830905703624 0.9404220011694139 -0.15673700019490233
vn -0.4250149220330146 -0.011073811212940321 0.9051186036948365
vn -0.4250149220330146 -0.011073811212940321 0.9051186036948365
vn -0.4250149220330146 -0.011073811212940321 0.9051186036948365
vn -0.4250149220330146 -0.011073811212940321 0.9051186036948365
vn -0.42246529360808455 9.380613921374449e-17 -0.906379101533478
vn -0.42246529360808455 9.380613921374449e-17 -0.906379101533478
vn -0.42246529360808455 9.380613921374449e-17 -0.906379101533478
vn -0.42246529360808455 9.380613921374449e-17 -0.906379101533478
vn 0.11481650016343535 -0.8610366464892015 0.4954120150872905
vn 0.11481650016343535 -0.8610366464892015 0.4954120150872905
vn 0.11481650016343535 -0.8610366464892015 0.4954120150872905
vn 0.11481650016343535 -0.8610366464892015 0.4954120150872905
vn -0.06873700892959375 -0.963671821027622 0.2580927061362246
vn -0.06873700892959375 -0.963671821027622 0.2580927061362246
vn -0.06873700892959375 -0.963671821027622 0.2580927061362246
vn -0.2611902680427027 5.799588987780495e-17 -0.965287337469927
vn -0.2611902680427027 5.799588987780495e-17 -0.965287337469927
vn -0.2611902680427027 5.799588987780495e-17 -0.965287337469927
vn 0.36174043715429716 -0.8941409514301658 -0.26392388126688315
vn 0.36174043715429716 -0.8941409514301658 -0.26392388126688315
vn 0.36174043715429716 -0.8941409514301658 -0.26392388126688315
vn -0.2573354199455036 -0.012665336731232676 0.9662391375259832
vn -0.2573354199455036 -0.012665336731232676 0.9662391375259832
vn -0.2573354199455036 -0.012665336731232676 0.9662391375259832
vn 1 -2.220446049250313e-16 0
vn 1 -2.220446049250313e-16 0
vn 1 -2.220446049250313e-16 0
vn 1 -2.220446049250313e-16 0
vn 0.13391789837446358 -0.9909924300896386 0
vn 0.13391789837446358 -0.9909924300896386 0
vn 0.13391789837446358 -0.9909924300896386 0
vn 0.13391789837446358 -0.9909924300896386 0
vn -0.06959991277235691 -0.9638426470293837 -0.25722209063272733
vn -0.06959991277235691 -0.9638426470293837 -0.25722209063272733
vn -0.06959991277235691 -0.9638426470293837 -0.25722209063272733
vn 0.30172830905703624 0.9404220011694139 0.15673700019490233
vn 0.30172830905703624 0.9404220011694139 0.15673700019490233
vn 0.30172830905703624 0.9404220011694139 0.15673700019490233
vn 0.30172830905703624 0.9404220011694139 0.15673700019490233
vn 0.36174043715429716 -0.8941409514301658 0.26392388126688315
vn 0.36174043715429716 -0.8941409514301658 0.26392388126688315
vn 0.36174043715429716 -0.8941409514301658 0.26392388126688315
f 1/1/1 3/3/3 2/2/2
f 1/1/1 2/2/2 4/4/4
f 5/5/5 7/7/7 6/6/6
f 5/5/5 6/6/6 8/8/8
f 9/9/9 11/11/11 10/10/10
f 9/9/9 10/10/10 12/12/12
f 13/13/13 15/15/15 14/14/14
f 13/13/13 14/14/14 16/16/16
f 17/17/17 19/19/19 18/18/18
f 17/17/17 18/18/18 20/20/20
f 21/21/21 22/22/22 23/23/23
f 24/24/24 25/25/25 26/26/26
f 27/27/27 28/28/28 29/29/29
f 30/30/30 31/31/31 32/32/32
f 33/33/33 34/34/34 35/35/35
f 33/33/33 35/35/35 36/36/36
f 37/37/37 38/38/38 39/39/39
f 37/37/37 39/39/39 40/40/40
f 41/41/41 42/42/42 43/43/43
f 44/44/44 45/45/45 46/46/46
f 44/44/44 46/46/46 47/47/47
f 48/48/48 49/49/49 50/50/50
o cuboid
usemtl material23
v 0.625 0.35519890762741346 0.2754042288255249
v 0.5625 0.02316190484054623 0.18643518207153342
v 0.625 0.37137509794632095 0.21503386468245816
v 0.5625 0.03933809515945377 0.12606481792846663
v 0.3125 0.29482854348434673 0.25922803850661735
v 0.3125 0.3110047338032542 0.19885767436355062
v 0.125 0.023161904840546227 0.18643518207153342
v 0.125 0.03933809515945377 0.12606481792846663
v 0.625 0.35519890762741346 0.2754042288255249
v 0.625 0.37137509794632095 0.21503386468245816
v 0.3125 0.29482854348434673 0.25922803850661735
v 0.3125 0.3110047338032542 0.19885767436355062
v 0.5625 0.02316190484054623 0.18643518207153342
v 0.125 0.023161904840546227 0.18643518207153342
v 0.5625 0.03933809515945377 0.12606481792846663
v 0.125 0.03933809515945377 0.12606481792846663
v 0.625 0.35519890762741346 0.2754042288255249
v 0.3125 0.29482854348434673 0.25922803850661735
v 0.5625 0.02316190484054623 0.18643518207153342
v 0.125 0.023161904840546227 0.18643518207153342
v 0.625 0.37137509794632095 0.21503386468245816
v 0.5625 0.03933809515945377 0.12606481792846663
v 0.3125 0.3110047338032542 0.19885767436355062
v 0.125 0.03933809515945377 0.12606481792846663
vt 0.5625 1
vt 0.5625 0.625
vt 0.625 1
vt 0.625 0.625
vt 0.75 1
vt 0.6875 1
vt 0.75 0.6875
vt 0.6875 0.6875
vt 0.625 0.4375
vt 0.5625 0.4375
vt 0.625 0.125
vt 0.5625 0.125
vt 0.875 0.5625
vt 0.4375 0.5625
vt 0.875 0.5
vt 0.4375 0.5
vt 0.5 1
vt 0.1875 0.9375
vt 0.4375 0.625
vt 0 0.625
vt 0 0.5625
vt 0.0625 0.1875
vt 0.3125 0.5
vt 0.5 0.1875
vn 0.9838699089078147 -0.17279007103750404 -0.046298959994615536
vn 0.9838699089078147 -0.17279007103750404 -0.046298959994615536
vn 0.9838699089078147 -0.17279007103750404 -0.046298959994615536
vn 0.9838699089078147 -0.17279007103750404 -0.046298959994615536
vn -0.8320503035077886 0.5357992320953324 0.14356697154515996
vn -0.8320503035077886 0.5357992320953324 0.14356697154515996
vn -0.8320503035077886 0.5357992320953324 0.14356697154515996
vn -0.8320503035077886 0.5357992320953324 0.14356697154515996
vn -0.19611613227257615 0.9471681999634379 0.25379295427664333
vn -0.19611613227257615 0.9471681999634379 0.25379295427664333
vn -0.19611613227257615 0.9471681999634379 0.25379295427664333
vn -0.19611613227257615 0.9471681999634379 0.25379295427664333
vn 3.6388535414044735e-18 -0.9659258262890683 -0.25881904510252074
vn 3.6388535414044735e-18 -0.9659258262890683 -0.25881904510252074
vn 3.6388535414044735e-18 -0.9659258262890683 -0.25881904510252074
vn 3.6388535414044735e-18 -0.9659258262890683 -0.25881904510252074
vn -1.192622389734055e-18 -0.25881904510252074 0.9659258262890683
vn -1.192622389734055e-18 -0.25881904510252074 0.9659258262890683
vn -1.192622389734055e-18 -0.25881904510252074 0.9659258262890683
vn -1.192622389734055e-18 -0.25881904510252074 0.9659258262890683
vn 1.192622389734055e-18 0.25881904510252074 -0.9659258262890683
vn 1.192622389734055e-18 0.25881904510252074 -0.9659258262890683
vn 1.192622389734055e-18 0.25881904510252074 -0.9659258262890683
vn 1.192622389734055e-18 0.25881904510252074 -0.9659258262890683
f 53/53/53 51/51/51 52/52/52
f 53/53/53 52/52/52 54/54/54
f 57/57/57 55/55/55 56/56/56
f 57/57/57 56/56/56 58/58/58
f 61/61/61 59/59/59 60/60/60
f 61/61/61 60/60/60 62/62/62
f 65/65/65 63/63/63 64/64/64
f 65/65/65 64/64/64 66/66/66
f 69/69/69 67/67/67 68/68/68
f 69/69/69 68/68/68 70/70/70
f 73/73/73 71/71/71 72/72/72
f 73/73/73 72/72/72 74/74/74
o cuboid_1
usemtl material27
v 0.625 0.37137509794632095 -0.2150338646824581
v 0.5625 0.03933809515945377 -0.12606481792846658
v 0.625 0.35519890762741346 -0.27540422882552484
v 0.5625 0.02316190484054623 -0.18643518207153337
v 0.3125 0.3110047338032542 -0.19885767436355056
v 0.3125 0.29482854348434673 -0.2592280385066173
v 0.125 0.03933809515945377 -0.12606481792846658
v 0.125 0.02316190484054623 -0.18643518207153337
v 0.625 0.37137509794632095 -0.2150338646824581
v 0.625 0.35519890762741346 -0.27540422882552484
v 0.3125 0.3110047338032542 -0.19885767436355056
v 0.3125 0.29482854348434673 -0.2592280385066173
v 0.5625 0.03933809515945377 -0.12606481792846658
v 0.125 0.03933809515945377 -0.12606481792846658
v 0.5625 0.02316190484054623 -0.18643518207153337
v 0.125 0.02316190484054623 -0.18643518207153337
v 0.625 0.37137509794632095 -0.2150338646824581
v 0.3125 0.3110047338032542 -0.19885767436355056
v 0.5625 0.03933809515945377 -0.12606481792846658
v 0.125 0.03933809515945377 -0.12606481792846658
v 0.625 0.35519890762741346 -0.27540422882552484
v 0.5625 0.02316190484054623 -0.18643518207153337
v 0.3125 0.29482854348434673 -0.2592280385066173
v 0.125 0.02316190484054623 -0.18643518207153337
vt 0.5625 1
vt 0.5625 0.625
vt 0.625 1
vt 0.625 0.625
vt 0.75 1
vt 0.6875 1
vt 0.75 0.6875
vt 0.6875 0.6875
vt 0.625 0.4375
vt 0.5625 0.4375
vt 0.625 0.125
vt 0.5625 0.125
vt 0.875 0.5625
vt 0.4375 0.5625
vt 0.875 0.5
vt 0.4375 0.5
vt 0.5 1
vt 0.1875 0.9375
vt 0.4375 0.625
vt 0 0.625
vt 0 0.5625
vt 0.0625 0.1875
vt 0.3125 0.5
vt 0.5 0.1875
vn 0.9838699089078147 -0.17279007103750404 0.046298959994615536
vn 0.9838699089078147 -0.17279007103750404 0.046298959994615536
vn 0.9838699089078147 -0.17279007103750404 0.046298959994615536
vn 0.9838699089078147 -0.17279007103750404 0.046298959994615536
vn -0.8320503035077886 0.5357992320953324 -0.14356697154515996
vn -0.8320503035077886 0.5357992320953324 -0.14356697154515996
vn -0.8320503035077886 0.5357992320953324 -0.14356697154515996
vn -0.8320503035077886 0.5357992320953324 -0.14356697154515996
vn -0.19611613227257615 0.9471681999634379 -0.25379295427664333
vn -0.19611613227257615 0.9471681999634379 -0.25379295427664333
vn -0.19611613227257615 0.9471681999634379 -0.25379295427664333
vn -0.19611613227257615 0.9471681999634379 -0.25379295427664333
vn -2.4394548880923835e-19 -0.9659258262890683 0.25881904510252074
vn -2.4394548880923835e-19 -0.9659258262890683 0.25881904510252074
vn -2.4394548880923835e-19 -0.9659258262890683 0.25881904510252074
vn -2.4394548880923835e-19 -0.9659258262890683 0.25881904510252074
vn -8.6736173798840345e-19 0.25881904510252074 0.9659258262890683
vn -8.6736173798840345e-19 0.25881904510252074 0.9659258262890683
vn -8.6736173798840345e-19 0.25881904510252074 0.9659258262890683
vn -8.6736173798840345e-19 0.25881904510252074 0.9659258262890683
vn 8.6736173798840345e-19 -0.25881904510252074 -0.9659258262890683
vn 8.6736173798840345e-19 -0.25881904510252074 -0.9659258262890683
vn 8.6736173798840345e-19 -0.25881904510252074 -0.9659258262890683
vn 8.6736173798840345e-19 -0.25881904510252074 -0.9659258262890683
f 77/77/77 75/75/75 76/76/76
f 77/77/77 76/76/76 78/78/78
f 81/81/81 79/79/79 80/80/80
f 81/81/81 80/80/80 82/82/82
f 85/85/85 83/83/83 84/84/84
f 85/85/85 84/84/84 86/86/86
f 89/89/89 87/87/87 88/88/88
f 89/89/89 88/88/88 90/90/90
f 93/93/93 91/91/91 92/92/92
f 93/93/93 92/92/92 94/94/94
f 97/97/97 95/95/95 96/96/96
f 97/97/97 96/96/96 98/98/98
o cone
usemtl material29
v 0.59375 0.1875 0.03883252292871475
v 0.59375 0.13258251547813416 0.09375
v 0.59375 0.09375 -5.084455053182303e-32
v 0.59375 0.13258251547813416 0.09375
v 0.59375 0.1875 0.03883252292871475
v 0.21875 0.09375 -5.084455053182303e-32
v 0.59375 0.1875 -0.03883252292871475
v 0.59375 0.1875 0.03883252292871475
v 0.59375 0.09375 -5.084455053182303e-32
v 0.59375 0.1875 0.03883252292871475
v 0.59375 0.1875 -0.03883252292871475
v 0.21875 0.09375 -5.084455053182303e-32
v 0.59375 0.13258251547813416 -0.09375
v 0.59375 0.1875 -0.03883252292871475
v 0.59375 0.09375 -5.084455053182303e-32
v 0.59375 0.1875 -0.03883252292871475
v 0.59375 0.13258251547813416 -0.09375
v 0.21875 0.09375 -5.084455053182303e-32
v 0.59375 0.054917484521865845 -0.09375
v 0.59375 0.13258251547813416 -0.09375
v 0.59375 0.09375 -5.084455053182303e-32
v 0.59375 0.13258251547813416 -0.09375
v 0.59375 0.054917484521865845 -0.09375
v 0.21875 0.09375 -5.084455053182303e-32
v 0.59375 0 -0.03883252292871475
v 0.59375 0.054917484521865845 -0.09375
v 0.59375 0.09375 -5.084455053182303e-32
v 0.59375 0.054917484521865845 -0.09375
v 0.59375 0 -0.03883252292871475
v 0.21875 0.09375 -5.084455053182303e-32
v 0.59375 0 0.03883252292871475
v 0.59375 0 -0.03883252292871475
v 0.59375 0.09375 -5.084455053182303e-32
v 0.59375 0 -0.03883252292871475
v 0.59375 0 0.03883252292871475
v 0.21875 0.09375 -5.084455053182303e-32
v 0.59375 0.054917484521865845 0.09375
v 0.59375 0 0.03883252292871475
v 0.59375 0.09375 -5.084455053182303e-32
v 0.59375 0 0.03883252292871475
v 0.59375 0.054917484521865845 0.09375
v 0.21875 0.09375 -5.084455053182303e-32
v 0.59375 0.13258251547813416 0.09375
v 0.59375 0.054917484521865845 0.09375
v 0.59375 0.09375 -5.084455053182303e-32
v 0.59375 0.054917484521865845 0.09375
v 0.59375 0.13258251547813416 0.09375
v 0.21875 0.09375 -5.084455053182303e-32
vt 0.02745937556028366 1
vt 0 0.9725406169891357
vt 0.046875 0.953125
vt 0.28799474239349365 0.8676097989082336
vt 0.2841130197048187 0.90625
vt 0.09375 0.8676097989082336
vt 0.06629062443971634 1
vt 0.02745937556028366 1
vt 0.046875 0.953125
vt 0.3240059018135071 0.8086186647415161
vt 0.2853690981864929 0.8125
vt 0.2853690981864929 0.6182553768157959
vt 0.09375 0.9725406169891357
vt 0.06629062443971634 1
vt 0.046875 0.953125
vt 0.046875 0.875
vt 0.00823484268039465 0.8711176514625549
vt 0.046875 0.6807549595832825
vt 0.09375 0.9337093830108643
vt 0.09375 0.9725406169891357
vt 0.046875 0.953125
vt 0.234375 0.8125
vt 0.19573821127414703 0.8086186647415161
vt 0.234375 0.6182553768157959
vt 0.06629062443971634 0.90625
vt 0.09375 0.9337093830108643
vt 0.046875 0.953125
vt 0.13388025760650635 0.991762101650238
vt 0.1377624124288559 0.953125
vt 0.328125 0.991762101650238
vt 0.02745937556028366 0.90625
vt 0.06629062443971634 0.90625
vt 0.046875 0.953125
vt 0.3481917381286621 0.7105118036270142
vt 0.35207316279411316 0.671875
vt 0.5424332618713379 0.7105118036270142
vt 0 0.9337093830108643
vt 0.02745937556028366 0.90625
vt 0.046875 0.953125
vt 0.09375 0.6132571697235107
vt 0.13238713145256042 0.609375
vt 0.13238713145256042 0.8036197423934937
vt 0 0.9725406169891357
vt 0 0.9337093830108643
vt 0.046875 0.953125
vt 0.5341132879257202 0.8988631963729858
vt 0.5379946231842041 0.9375
vt 0.34375 0.9375
vn 1 0 0
vn 1 0 0
vn 1 0 0
vn -0.2425356256622641 0.6859943404593853 0.6859943404593853
vn -0.2425356256622641 0.6859943404593853 0.6859943404593853
vn -0.2425356256622641 0.6859943404593853 0.6859943404593853
vn 1 0 0
vn 1 0 0
vn 1 0 0
vn -0.24253562503633297 0.9701425001453319 0
vn -0.24253562503633297 0.9701425001453319 0
vn -0.24253562503633297 0.9701425001453319 0
vn 1 0 0
vn 1 0 0
vn 1 0 0
vn -0.2425356256622641 0.6859943404593853 -0.6859943404593853
vn -0.2425356256622641 0.6859943404593853 -0.6859943404593853
vn -0.2425356256622641 0.6859943404593853 -0.6859943404593853
vn 1 0 0
vn 1 0 0
vn 1 0 0
vn -0.24253562503633297 0 -0.9701425001453319
vn -0.24253562503633297 0 -0.9701425001453319
vn -0.24253562503633297 0 -0.9701425001453319
vn 1 0 0
vn 1 0 0
vn 1 0 0
vn -0.2425356256622641 -0.6859943404593853 -0.6859943404593853
vn -0.2425356256622641 -0.6859943404593853 -0.6859943404593853
vn -0.2425356256622641 -0.6859943404593853 -0.6859943404593853
vn 1 0 0
vn 1 0 0
vn 1 0 0
vn -0.24253562503633297 -0.9701425001453319 0
vn -0.24253562503633297 -0.9701425001453319 0
vn -0.24253562503633297 -0.9701425001453319 0
vn 1 0 0
vn 1 0 0
vn 1 0 0
vn -0.2425356256622641 -0.6859943404593853 0.6859943404593853
vn -0.2425356256622641 -0.6859943404593853 0.6859943404593853
vn -0.2425356256622641 -0.6859943404593853 0.6859943404593853
vn 1 0 0
vn 1 0 0
vn 1 0 0
vn -0.24253562503633297 0 0.9701425001453319
vn -0.24253562503633297 0 0.9701425001453319
vn -0.24253562503633297 0 0.9701425001453319
f 99/99/99 100/100/100 101/101/101
f 102/102/102 103/103/103 104/104/104
f 105/105/105 106/106/106 107/107/107
f 108/108/108 109/109/109 110/110/110
f 111/111/111 112/112/112 113/113/113
f 114/114/114 115/115/115 116/116/116
f 117/117/117 118/118/118 119/119/119
f 120/120/120 121/121/121 122/122/122
f 123/123/123 124/124/124 125/125/125
f 126/126/126 127/127/127 128/128/128
f 129/129/129 130/130/130 131/131/131
f 132/132/132 133/133/133 134/134/134
f 135/135/135 136/136/136 137/137/137
f 138/138/138 139/139/139 140/140/140
f 141/141/141 142/142/142 143/143/143
f 144/144/144 145/145/145 146/146/146
